<svg class="svg-sprite-sheet" xmlns="http://www.w3.org/2000/svg" xmlns:xlink="http://www.w3.org/1999/xlink"><defs><symbol viewBox="0 0 8 10" id="arrow-tip"><path d="M7.5 5L0 0.669873L0 9.33013L7.5 5ZM0.75 4.25H0V5.75H0.75V4.25Z" /></symbol><symbol viewBox="0 0 40 24" id="awards"><path d="M5.88867 6.72958C5.88867 13.4772 10.0701 19.2482 15.9831 21.5927" stroke-width="1.5" /><path d="M7.56987 3.9957C7.56987 6.20246 6.81664 6.72959 5.88748 6.72959C4.95831 6.72959 4.20508 6.20246 4.20508 3.9957C4.20508 1.78893 5.88748 0 5.88748 0C5.88748 0 7.56987 1.78893 7.56987 3.9957Z" /><path d="M5.16995 8.87298C6.6371 10.5214 6.4249 11.4159 5.73083 12.0337C5.03676 12.6514 4.12364 12.7585 2.6565 11.11C1.18935 9.46161 1.25673 7.00678 1.25673 7.00678C1.25673 7.00678 3.70281 7.22456 5.16995 8.87298Z" /><path d="M5.94799 14.6928C7.89783 15.7262 8.01086 16.6386 7.57575 17.4595C7.14063 18.2805 6.32214 18.6992 4.3723 17.6658C2.42246 16.6324 1.62964 14.3082 1.62964 14.3082C1.62964 14.3082 3.99815 13.6594 5.94799 14.6928Z" /><path d="M10.4806 20.1532C12.6421 20.598 13.0066 21.4421 12.8193 22.3521C12.6319 23.2622 11.9638 23.8937 9.80233 23.4489C7.64088 23.004 6.22783 20.9955 6.22783 20.9955C6.22783 20.9955 8.31919 19.7083 10.4806 20.1532Z" /><path d="M7.04621 8.66677C6.11113 10.6656 6.57003 11.4623 7.41166 11.856C8.25328 12.2497 9.15892 12.0914 10.094 10.0925C11.0291 8.09369 10.2632 5.76041 10.2632 5.76041C10.2632 5.76041 7.98129 6.66791 7.04621 8.66677Z" /><path d="M8.9113 12.9765C8.11101 15.033 8.6218 15.7975 9.48771 16.1344C10.3536 16.4714 11.2467 16.2533 12.047 14.1968C12.8473 12.1402 11.9282 9.86295 11.9282 9.86295C11.9282 9.86295 9.7116 10.92 8.9113 12.9765Z" /><path d="M12.0029 17.44C11.8117 19.6384 12.5164 20.2289 13.4421 20.3094C14.3677 20.3899 15.1638 19.93 15.355 17.7315C15.5462 15.533 14.0251 13.6051 14.0251 13.6051C14.0251 13.6051 12.194 15.2415 12.0029 17.44Z" /><path d="M33.6465 6.72958C33.6465 13.4772 29.4651 19.2482 23.5521 21.5927" stroke-width="1.5" /><path d="M31.684 3.9957C31.684 6.20246 32.4373 6.72959 33.3664 6.72959C34.2956 6.72959 35.0488 6.20246 35.0488 3.9957C35.0488 1.78893 33.3664 0 33.3664 0C33.3664 0 31.684 1.78893 31.684 3.9957Z" /><path d="M34.084 8.87298C32.6168 10.5214 32.829 11.4159 33.5231 12.0337C34.2171 12.6514 35.1303 12.7585 36.5974 11.11C38.0646 9.46161 37.9972 7.00678 37.9972 7.00678C37.9972 7.00678 35.5511 7.22456 34.084 8.87298Z" /><path d="M33.3059 14.6928C31.3561 15.7262 31.243 16.6386 31.6782 17.4595C32.1133 18.2805 32.9318 18.6992 34.8816 17.6658C36.8315 16.6324 37.6243 14.3082 37.6243 14.3082C37.6243 14.3082 35.2558 13.6594 33.3059 14.6928Z" /><path d="M28.7733 20.1532C26.6118 20.598 26.2473 21.4421 26.4346 22.3521C26.622 23.2622 27.2901 23.8937 29.4516 23.4489C31.613 23.004 33.0261 20.9955 33.0261 20.9955C33.0261 20.9955 30.9347 19.7083 28.7733 20.1532Z" /><path d="M32.2077 8.66677C33.1428 10.6656 32.6839 11.4623 31.8422 11.856C31.0006 12.2497 30.095 12.0914 29.1599 10.0925C28.2248 8.09369 28.9907 5.76041 28.9907 5.76041C28.9907 5.76041 31.2726 6.66791 32.2077 8.66677Z" /><path d="M30.3426 12.9765C31.1429 15.033 30.6321 15.7975 29.7662 16.1344C28.9003 16.4714 28.0072 16.2533 27.2069 14.1968C26.4066 12.1402 27.3257 9.86295 27.3257 9.86295C27.3257 9.86295 29.5423 10.92 30.3426 12.9765Z" /><path d="M27.2511 17.44C27.4422 19.6384 26.7375 20.2289 25.8118 20.3094C24.8862 20.3899 24.0901 19.93 23.8989 17.7315C23.7077 15.533 25.2288 13.6051 25.2288 13.6051C25.2288 13.6051 27.0599 15.2415 27.2511 17.44Z" /></symbol><symbol viewBox="0 0 11 14" id="download"><path fill-rule="evenodd" clip-rule="evenodd" d="M2.61328 3.53846L5.50003 8.53846L8.38678 3.53846L6.00003 3.53846V0L5.00003 0V3.53846H2.61328Z" /><path fill-rule="evenodd" clip-rule="evenodd" d="M11 13.5H0V12.5H11V13.5Z" /></symbol><symbol viewBox="0 0 22 8" id="eye"><circle cx="11.3638" cy="4" r="3" stroke-width="1.5" /><path d="M21.0001 4.27153C18.2652 2.21727 14.8658 1 11.182 1C7.49815 1 4.09866 2.21727 1.36377 4.27153" stroke-width="1.5" /></symbol><symbol viewBox="0 0 54 22" id="logo"><path d="M0.0131526 0V22H2.57275V10.2647C2.57275 8.29071 4.29011 6.67205 6.40884 6.67205C8.52758 6.67205 10.2449 8.28084 10.2449 10.2647V22H12.8045V10.2647C12.8045 8.29071 14.5219 6.67205 16.6406 6.67205C18.7594 6.67205 20.4767 8.28084 20.4767 10.2647V22H23.0363V10.2647C23.0363 8.29071 24.7537 6.67205 26.8724 6.67205C28.9912 6.67205 30.6954 8.26769 30.7085 10.2384V22H33.2714V10.2647C33.2714 8.29071 34.9888 6.67205 37.1075 6.67205C39.2262 6.67205 40.9436 8.28084 40.9436 10.2647V22H43.5032V10.2647C43.5032 8.29071 45.2205 6.67205 47.3393 6.67205C49.458 6.67205 51.1754 8.28084 51.1754 10.2647V22H53.735V10.2647V0C53.735 0 45.4311 3.57291 26.8691 3.57291C6.70494 3.57291 0 0 0 0" /></symbol><symbol viewBox="0 0 16 16" id="online"><g clip-path="url(#online_clip0_1509_672)"><path d="M13.9829 13.3026C15.2364 11.8899 16 10.0328 16 8C16 5.88497 15.1735 3.96055 13.8284 2.52855V2.52828C13.8273 2.52662 13.8257 2.52607 13.8248 2.52469C12.4237 1.03531 10.4607 0.081931 8.27724 0.00717241L8.27697 0.00689655L8.1211 0.00275862C8.08083 0.00137931 8.04055 0 8 0C7.95945 0 7.91917 0.00137931 7.8789 0.00275862L7.72359 0.00689655L7.72331 0.00717241C5.53986 0.081931 3.57683 1.03531 2.17572 2.52469C2.17462 2.52607 2.17297 2.52662 2.17214 2.52828L2.17186 2.52883C0.826483 3.96055 0 5.88497 0 8C0 10.0328 0.763586 11.8899 2.0171 13.3026C2.01876 13.3051 2.01876 13.3079 2.02069 13.3103C2.02566 13.3172 2.03283 13.3206 2.03807 13.3269C3.44662 14.9015 5.46759 15.9159 7.72303 15.9931L7.72331 15.9934L7.87862 15.9975C7.91917 15.9986 7.95945 16 8 16C8.04055 16 8.08083 15.9986 8.1211 15.9972L8.27641 15.9931L8.27669 15.9928C10.5346 15.9153 12.5578 14.899 13.9663 13.3211C13.9699 13.3164 13.9757 13.315 13.979 13.3101C13.9812 13.3079 13.9812 13.3051 13.9829 13.3026ZM0.558621 8.27586H3.86979C3.90097 9.44524 4.12938 10.5815 4.536 11.6461C3.75145 11.9299 3.00138 12.3106 2.29848 12.7857C1.26483 11.5561 0.621517 9.98897 0.558621 8.27586ZM2.4491 3.04083C3.13545 3.48717 3.86621 3.84469 4.62841 4.11172C4.16166 5.24469 3.90345 6.46621 3.86979 7.72414H0.558621C0.624552 5.9291 1.32745 4.29462 2.4491 3.04083ZM15.4414 7.72414H12.1302C12.0966 6.46621 11.8383 5.24469 11.3716 4.11172C12.1338 3.84469 12.8646 3.48717 13.5509 3.04083C14.6726 4.29462 15.3754 5.9291 15.4414 7.72414ZM7.72414 4.12772C6.92662 4.1051 6.14372 3.98621 5.38731 3.77379C5.94648 2.62676 6.736 1.59145 7.72414 0.729379V4.12772ZM7.72414 4.67945V7.72414H4.42152C4.45545 6.52469 4.70703 5.36138 5.15697 4.28276C5.98621 4.52303 6.84717 4.656 7.72414 4.67945ZM8.27586 4.67945C9.15283 4.656 10.0138 4.52331 10.8433 4.28276C11.2932 5.36138 11.5448 6.52469 11.5788 7.72414H8.27586V4.67945ZM8.27586 4.12772V0.729379C9.264 1.59145 10.0535 2.62676 10.6127 3.77379C9.85628 3.98621 9.07338 4.1051 8.27586 4.12772ZM11.1473 3.60607C10.6174 2.49572 9.88193 1.48414 8.97131 0.617103C10.5868 0.828414 12.0403 1.5589 13.1597 2.63586C12.5241 3.03917 11.8499 3.36359 11.1473 3.60607ZM4.85269 3.60607C4.15007 3.36359 3.47586 3.03917 2.84055 2.63586C3.95972 1.5589 5.41352 0.828414 7.02897 0.617103C6.11807 1.48414 5.38262 2.49572 4.85269 3.60607ZM4.42152 8.27586H7.72414V11.045C6.81186 11.0692 5.91807 11.2116 5.05903 11.4701C4.6709 10.4618 4.45269 9.38455 4.42152 8.27586ZM7.72414 11.5967V15.2706C6.66648 14.3479 5.83724 13.2268 5.27338 11.9832C6.06428 11.7501 6.88579 11.6204 7.72414 11.5967ZM8.27586 15.2706V11.5967C9.11421 11.6201 9.93572 11.7501 10.7266 11.9829C10.1628 13.2268 9.33352 14.3479 8.27586 15.2706ZM8.27586 11.045V8.27586H11.5785C11.5473 9.38455 11.3291 10.4618 10.9407 11.4703C10.0819 11.2116 9.18814 11.0692 8.27586 11.045ZM12.1302 8.27586H15.4414C15.3785 9.98897 14.7354 11.5561 13.7015 12.7857C12.9986 12.3106 12.2486 11.9299 11.464 11.6461C11.8709 10.5815 12.099 9.44524 12.1302 8.27586ZM2.67338 13.1989C3.32607 12.7652 4.02097 12.4166 4.74703 12.1559C5.28359 13.3586 6.05379 14.4546 7.02869 15.3829C5.33186 15.1608 3.81324 14.3663 2.67338 13.1989ZM8.97131 15.3829C9.94621 14.4549 10.7164 13.3589 11.253 12.1559C11.979 12.4166 12.6737 12.7652 13.3266 13.1989C12.1868 14.3663 10.6681 15.1608 8.97131 15.3829Z" /></g><defs></defs></symbol><clipPath id="online_clip0_1509_672"><rect width="16" height="16" /></clipPath><symbol viewBox="0 0 32 32" id="pause"><path d="M12 8V24" stroke-width="2" /><path d="M19.5 8V24" stroke-width="2" /></symbol><symbol viewBox="0 0 32 32" id="play"><path fill-rule="evenodd" clip-rule="evenodd" d="M11.1436 8L25 16L11.1436 24L11.1436 8Z" /></symbol><symbol viewBox="0 0 32 32" id="play-next"><path fill-rule="evenodd" clip-rule="evenodd" d="M24.5 12.3397L32 16.6699L24.5 21V12.3397Z" /><path fill-rule="evenodd" clip-rule="evenodd" d="M16.5 12.3397L24 16.6699L16.5 21V12.3397Z" /></symbol><symbol viewBox="0 0 32 32" id="play-prev"><path fill-rule="evenodd" clip-rule="evenodd" d="M7.5 20.6603L0 16.3301L7.5 12V20.6603Z" /><path fill-rule="evenodd" clip-rule="evenodd" d="M15.5 20.6603L8 16.3301L15.5 12V20.6603Z" /></symbol><symbol viewBox="0 0 17 16" id="pushkin"><path fill-rule="evenodd" clip-rule="evenodd" d="M14.7833 10.0321C15.0148 10.0607 15.0891 10.5384 14.9738 10.5384C14.9183 10.5384 14.8648 10.4419 14.8503 10.402L14.7833 10.0321ZM13.7981 9.69786V9.49613C13.7981 9.26055 14.6715 9.62264 14.6715 10.2694C14.3827 10.2454 14.434 10.135 13.9325 10.135C13.8663 10.0361 13.7981 9.85846 13.7981 9.69786ZM14.3692 8.89093L14.6379 9.12629H14.7723C14.8246 9.16133 14.873 9.17086 14.873 9.26078V9.36165C14.4565 9.2645 14.5212 9.23139 14.3692 8.89093ZM14.873 7.34433C14.7782 7.33643 14.7387 7.34511 14.7387 7.24346L14.74 7.1467L14.873 7.10896C14.8835 7.14839 14.9067 7.20061 14.9067 7.20984C14.9067 7.21479 14.8732 7.34389 14.873 7.34433ZM11.4802 7.04171H11.6481C11.735 7.04171 11.8302 7.2039 11.8497 7.27708H11.6817C11.6218 7.27708 11.5066 7.17224 11.3794 7.14258C11.3994 7.06765 11.3873 7.04171 11.4802 7.04171ZM12.9918 7.6133C12.9918 7.29943 13.7309 6.48942 13.7309 6.80636C13.7309 7.20509 13.4208 7.6133 12.9918 7.6133ZM14.1353 6.33976C14.1385 6.13348 14.1847 6.11101 14.302 6.23477C14.3202 6.15652 14.4541 5.93218 14.5035 5.93218C14.6231 5.93218 14.7051 6.1603 14.7051 6.2684V6.50377C14.52 6.49963 14.5333 6.43652 14.4363 6.43652C14.361 6.43652 14.3626 6.46313 14.302 6.50377C14.2789 6.46274 14.2684 6.4678 14.2684 6.4029L14.2671 6.29792L14.1353 6.33976ZM13.8707 5.46276L13.9324 5.46146C13.9479 5.64732 14.0332 5.57402 14.0332 5.76407V5.99942C14.0332 6.12797 14.0435 6.01167 13.9912 6.11261L13.7528 5.96306L13.8707 5.46276ZM14.5707 5.52872C14.6793 5.52872 14.7387 5.65076 14.7387 5.76407C14.7387 5.91734 14.6346 5.83131 14.4699 5.83131C14.4719 5.74458 14.4953 5.52872 14.5707 5.52872ZM14.6379 5.32697C14.6993 5.06307 14.6862 4.86412 15.0153 4.94664C15.1924 4.99105 15.3433 5.25222 15.3433 5.46146C15.3433 5.68902 15.3069 6.16753 15.1082 6.16753C14.9671 6.16753 14.904 5.89229 14.8731 5.76404C14.7901 5.4198 14.75 5.53894 14.6379 5.32697ZM13.9996 5.12524C14.1177 5.13508 14.302 5.24386 14.302 5.36059V5.46146C14.302 5.54769 14.2939 5.54274 14.2684 5.59596C14.2756 5.60966 14.3356 5.72656 14.3356 5.73045C14.3356 5.85665 14.2512 5.88793 14.1676 5.93218C14.0906 5.60128 13.971 5.46976 13.9996 5.12524ZM14.2012 4.92351V4.85627C14.2012 4.76635 14.2497 4.75682 14.2824 4.71739L14.4027 4.25106C14.5601 4.28775 14.6043 4.36348 14.6043 4.55366V5.09162C14.6043 5.23357 14.521 5.11707 14.5035 5.32697H14.4027C14.3857 5.12157 14.2012 5.01315 14.2012 4.92351ZM14.9066 4.52003C14.9066 4.39149 14.8963 4.5078 14.9415 4.41505L15.0746 4.45279C15.0716 4.58695 15.0591 4.57728 15.0074 4.65454C14.9551 4.61948 14.9066 4.60996 14.9066 4.52003ZM14.4411 4.19265L14.4699 3.88122H14.6043C14.6424 4.02394 14.6715 3.94004 14.6715 4.04933V4.18382H14.6043L14.5996 4.10774L14.4411 4.19265ZM11.8429 3.87949L12.0177 3.8476C12.0567 3.92891 12.0849 3.99469 12.0849 4.11657V4.15019C12.0849 4.34384 11.9513 4.18382 11.8162 4.18382H11.6818V4.25106C11.7506 4.25678 12.0513 4.35532 12.0513 4.41917C12.0513 4.77735 11.7518 4.72178 11.5163 4.7166L11.3459 4.65454C11.2702 4.93835 10.9603 4.65022 11.3123 4.62091V4.48641C11.3123 4.39275 11.5015 4.15157 11.5475 4.08295C11.5475 3.93327 11.5671 3.61223 11.6818 3.61223C11.7726 3.61223 11.7744 3.62829 11.8447 3.64753L11.8846 3.7134L11.8429 3.87949ZM11.2115 3.34326C11.2115 3.23701 11.3398 2.98893 11.4131 2.9398C11.5037 3.00621 11.5475 3.12003 11.5475 3.27601V3.4105H11.3123C11.2573 3.4105 11.2115 3.39037 11.2115 3.34326ZM11.0771 3.47774L11.5139 3.54499C11.5139 3.76941 11.398 4.0166 11.3393 4.21087C11.2719 4.43414 11.0706 4.49462 11.01 4.72178C10.7837 4.71674 10.7781 4.57867 10.6603 4.48138L10.5397 3.98209C10.4543 3.96218 10.3717 3.95399 10.3717 3.8476V3.67948C10.3717 3.56468 10.5074 3.50094 10.6069 3.47774V3.4105H10.4389C10.4664 3.30734 10.7137 3.17331 10.8192 3.11872C10.9613 3.04518 11.1422 2.83892 11.2115 2.83892C11.4887 2.83892 11.082 3.26164 11.0771 3.47774ZM11.4467 2.77167H11.3123C11.3196 2.68418 11.4084 2.5027 11.4803 2.5027C11.5273 2.5027 11.5475 2.54853 11.5475 2.60356V2.67081C11.5475 2.74828 11.5241 2.77167 11.4467 2.77167ZM9.19601 2.60356L9.25593 2.72642L9.12908 2.80571L9.13319 2.77126L8.69212 2.70443C8.73717 2.53561 8.91052 2.45148 9.0187 2.32493C9.24918 2.05528 9.19601 2.32157 9.19601 2.60356ZM13.2474 2.18329C13.2614 2.16594 13.3234 2.13286 13.328 2.13286C13.4872 2.13286 13.736 2.38521 13.7902 2.40345L13.8302 2.60389L13.8102 2.63089L13.2474 2.18329ZM9.29688 2.09924C9.29688 2.00315 9.49031 1.86387 9.56562 1.86387H9.59921C9.71251 1.86387 9.83348 2.18001 9.7564 2.22128C9.75156 2.22388 9.29688 2.24743 9.29688 2.09924ZM11.4132 2.23372C11.4132 2.51255 11.2292 2.68697 11.0101 2.73805C11.005 2.96742 10.4647 3.27601 10.3047 3.27601H10.2039C10.1462 3.05988 9.99262 3.27368 9.86794 2.73805C9.90295 2.68572 9.91248 2.63718 10.0023 2.63718H10.3047V2.56994H10.2039C10.1131 2.56994 10.1112 2.55389 10.0359 2.53632V2.43545H9.93512C9.92184 2.48524 9.77045 2.68348 9.73501 2.70589C9.58282 2.80207 9.51479 2.74217 9.33045 2.73805V2.67081C9.50509 2.63009 9.73453 2.34565 9.90153 2.23372L9.90825 2.07234L9.97166 2.01159L10.37 1.93014L10.4396 1.80067L10.7413 1.763C10.8593 1.68396 10.9814 1.66214 11.178 1.66214H11.2452C11.3147 1.66214 11.5812 1.77452 11.5812 1.89749V1.96473C11.5812 2.09928 11.5245 2.20399 11.4132 2.23372ZM12.1339 1.50723L12.4882 1.49403C12.5635 1.49403 12.5619 1.52063 12.6225 1.56127C13.5763 1.56127 13.5169 1.92087 13.9326 2.03199C13.9189 2.091 13.8961 2.2001 13.8319 2.2001C13.6412 2.2001 13.3599 2.00445 13.0673 1.95662C12.8464 1.9205 12.4991 1.79052 12.3206 1.69554L12.421 1.93111C12.2427 1.94596 12.188 2.03199 12.0515 2.03199H11.9843C11.881 2.03199 11.8499 1.93349 11.8499 1.83025V1.79662C11.8499 1.70582 11.866 1.70392 11.8857 1.61979L12.2638 1.68803L12.1339 1.50723ZM8.1548 1.62852L8.22198 1.59489V1.69576L8.28917 1.35954H8.35635V1.25868C8.35635 1.15744 8.42893 1.11341 8.28917 1.05693V0.888823C8.28917 0.732466 8.12121 0.583558 8.12121 0.485361C8.12121 0.406951 8.21083 0.317253 8.28917 0.317253H8.42353C8.54023 0.317253 8.4748 0.384496 8.5915 0.384496H8.62509C8.74179 0.384496 8.67636 0.317253 8.79306 0.317253H8.86024C8.86323 0.317253 9.10624 0.40214 9.16932 0.411363C9.30831 0.431674 9.45339 0.404067 9.59218 0.425212C9.81996 0.459913 10.1298 0.586226 10.2711 0.586226V0.485361C9.94622 0.485361 9.93623 0.374286 9.59987 0.350272C9.14905 0.318085 9.16035 0.394598 9.09539 0.124683L9.36414 0.115506H9.46491V0.18275H9.73365L9.7331 0.112561L9.49986 0.156361L9.4944 0.11145L9.86232 0.0856631L9.9688 0.216371V0.115506H10.1032C10.1356 0.195951 10.4085 0.426615 10.4871 0.538153C10.5496 0.626819 10.6024 0.689051 10.6558 0.772766C10.7597 0.9356 10.6549 1.00281 10.8672 1.01382L10.6725 0.54588L10.943 0.485361C11.0379 0.548949 11.415 0.844605 11.4055 0.955958L11.4133 1.2923C11.4132 1.29642 11.3255 1.43592 11.3125 1.46041C11.0886 1.46041 10.8646 1.46085 10.6406 1.46039C10.2824 1.45965 10.2059 1.56127 10.036 1.56127C9.95048 1.56127 9.88112 1.44697 9.80154 1.395L9.70006 1.42679V1.69576C9.51921 1.71083 9.60163 1.763 9.53209 1.763C9.41702 1.763 9.28624 1.5112 9.22976 1.42679C9.2385 1.32162 9.26335 1.30734 9.26335 1.19143C9.26335 1.06287 9.27367 1.17919 9.21677 1.0805L9.12899 1.22506C9.01973 1.19958 8.69961 1.05693 8.69227 1.05693H8.5915V1.1578H8.69227C8.80819 1.1578 9.05744 1.39943 9.05579 1.57845L8.86024 1.66214C8.67332 1.66214 8.66349 1.61908 8.62643 1.77139L8.89312 1.73122L8.985 1.76252L8.987 1.95611L8.62509 2.30097C8.98387 2.20508 9.0769 1.82181 9.29694 1.763C9.29254 1.96074 9.05847 2.08892 8.93632 2.20902C8.8889 2.25564 8.55791 2.61272 8.55791 2.63718C8.55791 2.82596 8.99562 2.90617 9.19617 2.90617L9.26332 2.90559L9.59286 2.90398L9.53209 3.14153H9.83442C9.92016 3.14153 10.1368 3.43689 10.1368 3.47774C10.1368 3.85634 9.78697 3.78572 9.47793 3.86063C9.27217 3.91051 8.91185 4.13519 8.89383 4.35193C9.06745 4.34805 9.47534 4.04933 9.56568 4.04933C9.68925 4.04933 9.64367 4.15019 9.76724 4.15019H9.83442C9.99965 4.15019 9.87266 4.03727 10.0696 4.01571V4.11657C10.0696 4.33652 10.2375 4.3001 10.2375 4.52003L10.2284 4.71512L9.66647 5.4951H9.76724C9.83115 5.4951 10.0024 5.62235 10.0024 5.69683V5.93218C9.77844 5.99204 9.60959 6.30202 9.4985 6.30202H9.46491C9.38414 6.30202 9.36616 6.24755 9.29574 6.20086L9.33053 6.03304H9.26335V6.10029C9.09353 6.08615 9.0283 5.99942 8.96101 5.99942H8.86024C8.87705 6.20157 9.06601 6.24843 9.19617 6.33566C9.3991 6.33566 9.42665 6.29377 9.43132 6.50377L9.4985 6.53739L9.60402 6.53233L9.9352 6.80636C9.89359 6.62756 9.63286 6.46738 9.63286 6.43652C9.63286 6.33101 9.94151 6.06667 10.0024 6.06667C10.0892 6.06667 10.1844 6.22885 10.2053 6.2948L10.4432 6.33498L10.4886 6.55905L10.7414 6.94085C10.7998 6.94571 10.8867 6.94335 10.8815 7.00906L10.8422 7.27708C10.9579 7.24616 10.9311 7.20984 10.9766 7.20984C11.0797 7.20984 11.121 7.25617 11.1445 7.34433C11.3736 7.33922 11.2493 7.27708 11.3797 7.27708H11.4133C11.425 7.27708 11.6241 7.37164 11.7293 7.39869C12.0353 7.47745 11.9172 7.45538 11.9172 7.27708C11.9172 7.15496 12.0515 7.15222 12.0515 7.00809C12.0515 6.9088 11.7099 6.93118 11.6077 6.92862C11.3559 6.92231 11.4146 6.8995 11.1852 6.83293C10.9788 6.77303 10.6071 6.53655 10.6071 6.2684C10.6071 5.8957 10.8237 5.98628 10.8422 5.76407C10.4415 5.85752 10.5877 6.20115 10.4391 6.20115C10.3309 6.20115 10.2039 5.98281 10.2039 5.86494C10.2039 5.76328 10.2435 5.77197 10.3383 5.76407V5.66321C10.1827 5.65025 10.1161 5.61675 10.1032 5.46146C10.1605 5.44614 10.2375 5.42241 10.2375 5.36059C10.2375 5.20222 10.1074 5.28461 10.0024 5.29335C10.02 5.08133 10.2613 4.81843 10.4055 4.72178C10.6562 4.93984 10.8434 4.99075 11.2117 4.99075C11.3698 4.99075 11.5481 4.89532 11.7156 4.85627C11.7482 4.87812 12.0179 5.0418 12.0179 5.058C12.0179 5.20871 11.6922 5.48795 11.5812 5.56234C11.3727 5.56234 11.2207 5.50366 11.1781 5.66321C11.2682 5.68478 11.2414 5.69683 11.3125 5.69683C11.6469 5.69683 11.9515 5.51134 12.0179 5.22611C12.1128 5.234 12.1523 5.22532 12.1523 5.32697C12.1523 5.43507 12.0628 5.40301 12.0507 5.5951C12.0422 5.73037 12.0628 5.82143 12.0046 5.91881C11.958 5.99677 11.718 6.24148 11.6484 6.30202C11.9021 6.2809 12.0315 6.01335 12.1709 5.8499C12.3122 5.68424 12.2351 5.67332 12.252 5.42673C12.2636 5.25668 12.3875 5.16713 12.3875 5.058C12.3875 4.92755 12.3254 5.05188 12.3271 4.84618L12.8367 4.69769L12.8177 4.63077L12.2809 4.75443L12.3203 4.48641C12.2491 4.46063 12.1859 4.40884 12.1859 4.3183L12.2083 4.28292L12.1523 3.7131C12.1489 3.6697 12.2252 3.63095 12.2531 3.61223L12.0152 3.65062L11.7156 3.47774C11.7709 3.24043 11.6782 2.99331 11.9262 2.95904L11.8164 2.90617V2.80529C11.8164 2.58933 12.1117 2.29484 12.2562 2.21801L12.757 2.13286H12.9921C13.053 2.13286 13.7984 2.64024 13.7984 2.77167V2.90617C13.5041 2.79956 13.3537 2.36821 12.8578 2.36821C12.9008 2.52966 13.0606 2.49449 13.2229 2.57432C13.3352 2.62952 13.4749 2.74891 13.563 2.83918C13.6824 2.96163 13.7985 2.96359 13.8763 3.13073C13.9948 3.38522 14.095 3.25627 14.1007 3.51137L14.0663 3.49542L13.9327 3.81398C13.7391 3.76882 13.819 3.70039 13.6985 3.54406C13.6154 3.43624 13.5111 3.42387 13.4979 3.23488L13.807 3.29407L13.5968 3.17515C13.1304 3.17515 13.1654 2.79729 12.8578 2.77167L12.8314 2.79638L13.1601 3.17515H13.0593V3.24239L13.4288 3.27601C13.4499 3.52923 13.7984 3.74715 13.7984 3.94846V4.01571C13.7984 4.24139 13.2022 4.45748 13.0929 4.62091C13.2832 4.60506 13.7242 4.30239 13.7648 4.15019H13.8991C13.9167 4.2256 13.9327 4.22749 13.9327 4.3183V4.65454C13.9327 4.74647 13.7227 4.91339 13.6304 4.92351L13.6328 4.98448L13.7226 5.02576L13.7648 5.25973C13.6646 5.44923 13.6292 5.3305 13.5562 5.62253C13.5407 5.68433 13.3651 5.9264 13.3101 5.98147C13.2061 6.08571 13.1261 6.18259 13.029 6.27164C12.9224 6.36939 12.7738 6.42264 12.6898 6.53739C13.0144 6.51035 12.9459 6.23478 13.2811 6.22532L13.6688 5.67644L13.7286 5.70199L13.6304 6.2684C13.773 6.23029 13.6892 6.20115 13.7984 6.20115H13.8991V6.36928C13.8991 6.52388 13.8149 6.41288 13.7472 6.51984C13.6746 6.63463 13.7928 6.65554 13.5968 6.67187V6.57101C13.5968 6.45509 13.6216 6.44083 13.6304 6.33566H13.5632C13.5577 6.58418 12.8687 7.57968 12.757 7.57968C12.6783 7.57968 12.6226 7.52389 12.6226 7.44519V7.37794C12.6226 7.18747 12.6346 7.04978 12.7906 7.00809V6.83998C12.6505 6.85533 12.5218 7.16582 12.5218 7.27708L12.5222 7.51464L12.1523 7.57968V7.64692C12.2027 7.659 12.2531 7.65431 12.2531 7.71416C12.2531 7.83631 12.2132 7.8321 12.1859 7.94952L12.3391 7.93676L12.4547 7.78141C12.6023 7.79372 12.6063 7.80576 12.5693 7.89254L12.7773 8.01611L12.757 8.0504C12.9371 8.04637 12.9779 8.01994 12.9921 7.84865L13.1551 7.85033L13.1937 7.91589C13.4564 8.09196 13.4624 7.82209 13.4617 8.28759L13.5768 8.32366L13.496 8.48748V8.38661C13.4394 8.42599 13.4288 8.39143 13.4288 8.48748L13.4113 8.70394L12.9249 9.15993L12.9921 9.19355L13.443 8.83307L13.4418 8.86986L13.6304 9.19355H13.496V9.46253C13.496 9.63754 13.4222 9.91963 13.3635 10.0334L13.4312 10.1454L13.5632 9.63063L13.6169 9.63667L13.8655 10.1686C14.1787 10.1686 14.6718 10.2324 14.6718 10.5048V10.6057C14.6718 10.7667 14.5503 10.8538 14.5374 11.0092C14.7029 10.9649 14.7277 10.5721 14.8397 10.5721C14.9128 10.5721 15.0185 10.6683 15.0152 10.7413L14.9701 11.0422L14.9396 11.0224L14.7721 11.3033L14.6117 11.3303L14.7725 11.4126V11.5471L14.8355 11.4802L14.8733 11.6816C14.8733 11.5214 14.8726 11.4131 14.9286 11.2998C14.9434 11.2699 15.0936 11.0092 15.1085 11.0092C15.2807 11.0092 15.0225 11.5508 15.0077 11.6144L15.0413 11.6816C15.2577 11.4324 15.1952 11.291 15.2764 10.9419C15.0664 10.6281 15.1301 10.0603 14.9275 9.87902C14.667 9.64592 14.3647 9.51149 14.1007 9.2608C14.0253 9.27836 14.0235 9.29442 13.9327 9.29442H13.8655C13.6565 9.29442 13.7312 9.03099 13.7117 8.84799L13.6274 9.02401L13.595 9.03616L13.496 8.65559C13.6297 8.40282 13.7648 8.51797 13.7648 8.0504C13.8964 7.96216 13.9278 7.97101 13.9159 7.73097L13.8151 7.83184L13.8108 7.86693L13.6976 7.71416C13.7439 7.64488 13.7984 7.62689 13.7984 7.54606C13.7984 7.36903 13.7261 7.20678 13.9731 7.14326L13.9327 7.6133C14.1373 7.55862 14.0071 7.27708 14.1679 7.27708C14.2453 7.27708 14.2687 7.30048 14.2687 7.37794V7.47881C14.1557 7.50899 14.0671 7.76352 14.0671 7.84865C14.0671 7.92404 14.0937 7.92247 14.1343 7.98314C14.1343 8.22195 14.1949 8.60071 14.2421 8.8167C14.3303 9.22037 14.5094 9.21528 14.6066 9.38176L15.0245 9.44572L15.1421 9.36166V9.29442C15.0472 9.28652 15.0077 9.2952 15.0077 9.19355V8.99182H15.1421C15.1404 8.91768 15.1523 8.8237 15.0749 8.8237C14.8579 8.8237 14.9756 9.05906 14.8061 9.05906C14.5347 9.05906 14.3358 8.56688 14.3358 8.31937V8.11764C14.3358 8.04016 14.3592 8.01676 14.4366 8.01676H14.5374V7.74779C14.5374 7.66285 14.6766 7.57968 14.7389 7.57968C14.8143 7.57968 14.8127 7.60628 14.8733 7.64692C14.9597 7.58901 15.0833 7.53649 15.1609 7.46404C15.3066 7.32793 15.1696 7.26531 15.3772 7.20984V7.27708C15.547 7.26292 15.6123 7.1762 15.6795 7.1762H15.7803V7.10896H15.9483V6.97447C15.9483 6.85855 15.9731 6.84428 15.9703 6.75409L15.8475 6.63825C15.8205 6.65707 15.7646 6.7055 15.7467 6.7055C15.6693 6.7055 15.6459 6.6821 15.6459 6.60463V6.50377H15.7467V6.36928C15.6133 6.35816 15.6658 6.33566 15.5788 6.33566C15.4796 6.33566 15.2764 6.42256 15.2764 6.30202C15.2764 6.05104 15.4444 5.92598 15.4444 5.66321V5.59596C15.4444 5.17535 15.1274 4.91583 15.1085 4.68816H15.2093C15.29 4.68816 15.308 4.63367 15.3925 4.57004L15.2212 4.44847L15.1311 4.20291L14.9758 4.30931L14.8052 4.28445L14.8733 3.98209C14.72 3.90089 14.4702 3.66984 14.4702 3.47774C14.4702 3.34613 14.5209 3.47404 14.5374 3.27601L14.4104 3.27793L14.3694 3.4105C14.3008 3.39451 14.1679 3.34648 14.1679 3.27601C14.1679 3.22098 14.188 3.17515 14.2351 3.17515C14.3157 3.17515 14.4366 3.24725 14.4366 3.14153C14.4366 2.9588 14.415 2.93227 14.3022 2.87254C14.3022 2.63449 14.215 2.41672 14.0245 2.36698L14.0671 2.06561C13.7318 1.56451 12.7447 1.39316 11.8835 1.39316C11.793 1.25792 11.6952 0.930957 11.5882 0.848183C11.4178 0.716364 11.3113 0.584591 11.1311 0.46511C10.9814 0.365818 10.7595 0.237269 10.5964 0.159785C10.2906 0.0145637 10.2653 0.0146406 9.93515 0.0146406H9.80079C9.38465 0.0146406 9.1241 -0.0178858 8.62443 0.014024C8.52839 0.0201469 7.82826 0.359742 7.71977 0.40911L7.55009 0.384496L7.56166 0.436763L7.68319 0.552435L7.65086 0.855201L7.71684 0.854908L7.75163 0.687091H7.85242V0.855201H7.98679C8.15556 0.855201 8.18835 1.20878 8.18835 1.39316C8.18835 1.50908 8.16355 1.52335 8.1548 1.62852ZM6.60959 11.2781C6.62719 11.1171 6.83809 11.0764 7.0127 11.0764C6.98879 11.166 6.76297 11.2781 6.71036 11.2781H6.60959ZM7.71814 10.1686C7.72648 10.0683 7.74229 10.0005 7.85251 10.0005C7.85703 10.0005 7.91905 10.0336 7.9197 10.0341C7.85446 10.1316 7.85023 10.1378 7.71814 10.1686ZM9.80083 7.27711C9.80083 7.19841 9.85657 7.14261 9.9352 7.14261H10.0696L10.1465 7.40839L9.80196 7.45373L9.80083 7.27711ZM4.66118 13.3292V13.43L4.72836 13.4637C4.90088 13.4176 5.15642 13.2187 5.42013 13.1474C5.57219 13.1063 5.70563 13.1238 5.82483 13.0481C5.99448 12.9404 5.94028 12.9436 6.16308 12.8487C6.656 12.6388 6.93063 12.2494 7.30655 11.9086C7.67726 11.5725 8.04636 11.2757 8.47055 10.989C8.68686 10.8429 8.88857 10.7318 9.10893 10.5857C9.29768 10.4605 9.53374 10.2023 9.76726 10.2023H9.80085C10.0047 10.2023 9.9038 10.298 10.1368 10.3032C10.1184 10.0824 9.63866 9.93325 9.42942 9.95513L8.89385 10.0342V10.1014H8.75948C8.61001 10.1014 8.4223 10.1832 8.32277 10.2359C8.17477 10.1575 8.00341 10.1325 7.98685 9.93332C8.04382 9.93204 8.55553 9.76966 8.59861 9.73869C8.7334 9.6418 8.8856 9.41004 9.05554 9.39295L9.08296 9.29539L9.05664 8.89347L8.99575 8.71545L9.29695 8.75653C9.39295 8.77094 9.4371 8.65567 9.53211 8.65567H9.70008C9.79732 8.65567 9.97095 8.92465 10.4727 8.92465C10.642 8.92465 10.7846 8.82377 11.0004 8.80991L11.2117 8.62204C11.0691 8.66015 11.153 8.68929 11.0438 8.68929H10.943C10.9482 8.62644 11.4159 7.98981 11.4805 7.74786C11.231 7.76864 11.3214 8.33839 10.7414 8.38669C10.7616 8.202 10.8483 8.31576 10.9599 8.10097C11.0145 7.99583 11.1226 7.8639 11.1445 7.78148C10.8877 7.80961 10.777 8.35307 10.5063 8.35307C10.3887 8.35307 10.2126 8.32224 10.1368 8.28583V8.35307H10.036V8.15134C9.96114 8.13132 9.93521 8.14347 9.93521 8.05047L9.93528 7.84228L10.2712 7.84873C10.3318 7.88937 10.3302 7.91597 10.4055 7.91597L10.4386 7.90681L10.7079 7.91597H10.8422V7.84873H10.5735C10.4029 7.84873 10.1341 7.66077 9.96882 7.647L9.96857 7.54362L10.4055 7.51251C10.428 7.47005 10.4727 7.40134 10.4727 7.3444C10.4727 7.31459 10.1209 6.93793 10.1022 6.93519L9.85318 6.99002L9.60424 7.24175L9.46357 6.90661L9.5657 6.70557H9.49852L9.4985 6.53739L9.43132 6.50377C9.33591 6.60441 9.24092 6.6711 9.14385 6.78768C9.0374 6.91552 9.01131 7.01731 8.92744 7.14266V7.47889C8.87368 7.55926 8.75948 7.62868 8.75948 7.71424C8.75948 8.10543 9.41297 8.36004 9.46492 8.5548H9.39774V8.62204C9.16308 8.61682 9.20803 8.52118 9.09541 8.52118C8.85551 8.52118 8.29972 8.75653 8.12123 8.75653C7.95919 8.75653 8.0145 8.62204 7.85248 8.62204C7.78825 8.62204 7.82958 8.68929 7.7181 8.68929C7.61835 8.68929 7.62825 8.62204 7.48295 8.62204H7.41577C7.32285 8.62204 7.33499 8.64799 7.315 8.72291L7.67375 8.9096L7.68451 9.02552C7.58997 9.04756 7.51381 9.09276 7.41577 9.09276C7.21665 9.09276 6.47518 8.8695 6.47518 8.72291C6.47518 8.42013 6.72648 8.12571 6.74392 7.91597C6.55018 7.93212 6.50877 8.13869 6.50877 8.35307L6.36128 8.68408L6.30218 8.70778C6.23188 8.70534 6.22999 8.68929 6.13926 8.68929C6.07118 8.68929 5.87051 8.85508 5.87051 8.92465C5.87051 8.93554 6.20255 9.13785 6.28162 9.21925C6.40228 9.34345 6.55603 9.38517 6.74392 9.42898V9.52985L5.06438 9.49427L5.06431 9.42898H4.89635C4.5373 9.42898 5.23023 9.97433 5.34734 10.0199C5.83572 10.2099 5.78081 10.2242 6.30724 10.1014L6.43434 10.1803C6.43395 10.5126 5.84722 10.5049 5.50101 10.5049L5.4222 10.3777L4.9295 10.5712C5.029 10.7202 5.73331 11.211 5.97132 11.211H6.17286C6.17047 11.3187 6.18381 11.3791 6.07209 11.3791H5.83694C5.71696 11.3791 5.35934 11.2423 5.33304 11.1437H5.19868C5.11277 11.1437 4.99712 11.4871 4.99712 11.5136C4.99712 11.5755 5.33158 12.0546 5.36665 12.186H5.23227C5.15696 12.186 5.15853 12.1594 5.09791 12.1188L4.19166 12.0126C4.2081 12.2247 4.66315 12.6438 4.86275 12.6904C4.8711 12.7906 4.88691 12.8585 4.99712 12.8585H5.09791V13.0266L5.07295 12.9924L4.66118 13.3292ZM7.34861 4.41926C7.34861 4.29019 7.48351 4.25414 7.61735 4.25115V4.38564L7.65171 4.65451L7.61109 4.75309C7.48221 4.75247 7.34861 4.67523 7.34861 4.55375V4.41926ZM7.31501 5.05809C6.99443 5.05809 6.80191 4.36311 7.04627 4.18391C7.04627 4.99347 7.4584 4.76251 7.48297 5.05809H7.31501ZM7.37734 4.07014C7.35411 4.1883 7.30429 4.27123 7.18063 4.28477L7.17871 4.14517L7.37734 4.07014ZM6.60957 3.94856C6.63254 3.67223 6.74331 3.89971 6.92293 3.82767C7.06216 3.77183 7.06549 3.73119 7.28142 3.71319C7.27334 3.8104 7.09138 4.0158 7.01268 4.0158C6.86038 4.0158 6.73465 3.97772 6.60957 3.94856ZM7.04615 3.3762C7.19815 3.35267 7.51926 3.46288 7.55017 3.5787C7.25429 3.5787 6.85378 3.69641 6.77887 3.41897L7.04615 3.3762ZM6.40801 3.20886C6.40801 3.21338 6.37496 3.27546 6.37442 3.27611C6.22641 3.20502 6.21128 3.29125 6.20645 3.07438H6.37442C6.39663 3.16977 6.40801 3.13186 6.40801 3.20886ZM6.0385 3.07438H5.93771C5.88274 3.07438 5.83694 3.05425 5.83694 3.00713C5.83694 2.93602 5.84897 2.96279 5.87053 2.87263C6.01965 2.88506 6.02639 2.92878 6.0385 3.07438ZM4.79557 2.20019C4.79557 2.1419 4.86795 1.9312 4.92994 1.9312C4.99317 1.9312 5.03071 2.05523 5.03071 2.13295V2.23382L4.99309 2.53581L4.89635 2.53641C4.8779 2.45718 4.79557 2.25004 4.79557 2.20019ZM6.00491 2.23382C6.00491 2.13654 6.09558 1.86396 6.20645 1.86396H6.34083C6.36302 1.95937 6.37442 1.92144 6.37442 1.99845C6.37442 2.26599 6.19535 2.32914 6.13927 2.57003C6.18964 2.64533 6.27363 2.68816 6.27363 2.77176V2.80539C6.27363 2.8703 6.26307 2.86524 6.24004 2.90627C6.12234 2.8748 6.00491 2.56373 6.00491 2.50279V2.23382ZM5.46742 2.13295C5.46742 1.96009 5.66422 1.42688 5.83694 1.42688H5.87053C5.95827 1.42688 6.07209 1.61626 6.07209 1.69585C6.07209 1.70188 5.95452 1.83617 5.93669 2.06467C5.924 2.22746 5.87053 2.27985 5.87053 2.46917V2.73814C5.73134 2.72291 5.46742 2.47682 5.46742 2.33468V2.13295ZM6.27363 1.4605V1.56137C6.15829 1.53053 6.11692 1.49486 6.10568 1.35963C6.21333 1.36203 6.27363 1.34868 6.27363 1.4605ZM6.54238 0.586319L6.65996 0.670373L6.50879 0.687184V0.855292L6.27297 0.884797L6.3733 0.652976L6.4416 0.653562H6.54238V0.586319ZM5.93734 0.515775L6.09857 0.601387L6.10568 0.687184C5.87798 0.712123 5.75188 1.00243 5.62665 1.14916C5.4724 1.32987 5.35107 1.48676 5.19868 1.66223L5.23983 1.82891L5.10515 1.90923L5.1201 1.69419C5.06876 1.60208 5.03071 1.55406 5.03071 1.39326C5.03071 0.857298 5.22484 0.760304 5.53557 0.561273L5.93734 0.515775ZM4.72836 13.4637L4.66118 13.43V13.3292L3.95575 13.9568L3.45186 13.968C2.9339 13.968 2.58924 13.6466 2.38832 13.3298L2.41049 12.3542C2.32797 12.2308 2.34524 12.1647 2.2631 12.031C2.21248 11.9486 2.07457 11.8126 2.07457 11.749V11.6817C2.07457 11.6033 2.16419 11.5136 2.24252 11.5136H2.30972C2.42641 11.5136 2.36097 11.5809 2.47768 11.5809H2.8136C2.99042 11.5809 2.82549 11.4341 3.06555 11.4295L3.18312 11.5136C3.19357 11.4742 3.21672 11.4219 3.21672 11.4127C3.21672 11.2861 3.19461 11.3492 3.17602 11.1959L3.01516 11.2782C2.95453 11.2376 2.95611 11.211 2.88078 11.211H2.74642C2.72116 11.3057 2.65164 11.3455 2.54486 11.3455C2.52721 11.3455 2.05637 11.2303 1.9738 11.211C1.98083 10.8949 2.07924 11.094 1.9738 10.673C1.91696 10.4462 1.95658 10.2752 1.70505 10.2696C1.71622 10.1353 1.8431 10.1015 2.00739 10.1015C2.24875 10.1015 2.1715 10.3032 2.34331 10.3032H2.3769C2.55607 10.3032 2.71283 9.97339 2.71283 9.73161V9.59712C2.71283 9.49547 2.6733 9.50415 2.57845 9.49626C2.53836 9.66851 2.59626 10.0006 2.44408 10.0006H2.41049C2.30559 10.0006 2.20295 9.79887 2.07457 9.79887H2.04098C1.90196 9.79887 1.53708 9.978 1.53708 10.0678C1.53708 10.1731 1.62455 10.2696 1.4699 10.2696C1.35701 10.2696 1.20432 10.1822 1.11678 10.1216L1.53708 9.59712C1.83615 9.59712 1.78183 9.44569 2.00739 9.29453C2.00739 9.0045 2.03492 9.01338 2.17796 8.86005C2.31335 8.71492 2.32662 8.63051 2.44954 8.49305C2.65186 8.26678 2.83084 8.01327 3.01325 7.7796C3.13301 7.62619 3.39382 7.16997 3.44459 6.9673C3.50001 6.74609 3.55457 6.73338 3.553 6.43698C3.5509 6.0431 3.47064 6.03315 3.7206 6.03315C3.74424 6.03315 4.11336 5.84364 4.16942 5.80992C4.27662 5.74548 4.62328 5.73056 4.79557 5.73056H4.96353C5.17445 5.73056 5.20331 5.82829 5.29945 5.69694C5.0891 5.67942 4.95794 5.59607 4.66119 5.59607H4.49324C4.14573 5.59607 4.08631 5.77294 3.78778 5.7978C3.87546 5.61493 4.06411 5.12535 4.29168 5.12535H4.6276V5.05811L4.32997 5.05602L4.25611 4.8466L4.76115 4.72963L4.32983 4.68871L4.35886 4.1503C4.37709 3.96964 4.40607 3.75014 4.45835 3.61106C4.54837 3.37154 4.6777 3.3808 4.69478 3.17526C4.88382 3.191 4.95541 3.32608 5.10404 3.37085C5.27814 3.4233 5.39549 3.46639 5.37252 3.66091L5.29887 3.81773L5.70257 3.88133C5.5824 3.65401 5.47376 3.82985 5.46742 3.5451C5.82506 3.5451 6.20858 4.04944 6.67676 4.04944V4.11668H6.77753C6.83251 4.11668 6.8783 4.13681 6.8783 4.18392C6.8783 4.3512 6.64316 4.32248 6.64316 4.41928C6.64316 4.54966 6.72043 4.48573 6.78475 4.58017C6.80487 4.60972 6.83837 4.74265 6.86362 4.80383C6.92502 4.95264 7.00887 5.09109 7.15983 5.14626C7.43631 5.24731 7.94701 5.03693 7.95327 4.75551C7.79065 4.79897 7.84098 4.89 7.71812 4.89H7.61735C7.63144 4.72038 7.70933 4.72189 7.88609 4.72189C8.02975 4.50714 8.32279 4.6004 8.32279 4.38566C8.32279 4.28231 8.22437 4.25117 8.12124 4.25117L7.84442 4.24955L7.88447 4.04911L7.91222 4.07558L8.04658 3.94109L8.01805 3.92121L7.92394 3.89171L7.54975 4.01555L7.61288 3.87248L7.28142 4.01582C7.39054 3.60682 8.42006 3.43169 8.52435 3.04077C8.48337 3.01773 8.48841 3.00715 8.42356 3.00715C8.30943 3.00715 7.90653 3.37699 7.75171 3.37699H7.55017C7.45943 3.37699 7.45754 3.36093 7.3822 3.34336L7.38884 3.25906L7.7853 3.10801L7.77833 3.02413L7.31501 3.20888C7.26273 3.17384 7.21424 3.16431 7.21424 3.07439V2.57005C7.21424 2.49466 7.24081 2.49625 7.28142 2.43556H7.21424V2.26745L7.07315 2.61405L7.03728 2.6054L7.01268 2.43556L6.8783 2.16659C6.8783 2.44081 6.87679 2.55312 6.93068 2.78662C6.98529 3.0233 7.07986 2.94139 7.07986 3.30974H6.71035C6.63294 3.30974 6.60957 3.28635 6.60957 3.20888V3.04077C6.60957 2.86871 6.719 3.02694 6.84471 2.83902C6.63575 2.85644 6.40801 2.78571 6.40801 2.50281C6.40801 2.27321 6.57597 1.97269 6.57597 1.96484C6.57597 1.82732 6.50879 1.82041 6.50362 1.56382L6.4416 1.39327C6.34395 1.38513 6.13927 1.22752 6.13927 1.19154C6.13927 1.08989 6.1788 1.09857 6.2629 1.10089L6.47519 1.32603V0.956174H6.64316C6.63083 1.10446 6.57597 1.10329 6.57597 1.19154C6.57597 1.28146 6.62447 1.29097 6.66929 1.32714L6.71035 1.62862C6.90648 1.5762 6.80296 1.33443 6.78182 1.23878L6.9455 1.1579C6.87064 1.1379 6.84471 1.15005 6.84471 1.05704C6.84471 0.966291 6.93415 0.922552 7.01268 0.922552C7.37084 0.922552 7.28142 1.14971 7.28142 1.39327H7.34861V1.05704C7.34861 0.956205 7.48923 0.937543 7.58376 0.855309H7.3822C7.28357 0.707898 7.30146 0.569339 7.11345 0.519091C7.12587 0.369829 7.16955 0.363089 7.31501 0.350982V0.250101H7.14704C6.96507 0.250101 6.81698 0.303973 6.77753 0.451847C6.63778 0.454962 6.38272 0.537737 6.34083 0.653577C6.18276 0.547638 6.08933 0.418226 5.80335 0.418226H5.73616C5.5464 0.418226 5.55242 0.485469 5.33304 0.485469C5.18694 0.761831 4.96749 0.793848 4.96225 1.25749C4.95466 1.92672 4.69478 1.85761 4.69478 2.16659V2.53643C4.69478 2.65324 4.76198 2.58774 4.76198 2.70454V2.87265C4.56577 2.85631 4.57811 2.73816 4.49324 2.73816C4.36672 2.73816 4.42971 2.76029 4.29498 2.77002L4.03321 2.266L3.95575 1.72949H3.88857V1.96484C3.88857 2.52108 4.26481 2.93469 4.49324 3.27612C4.44065 3.37558 4.21123 3.86635 4.19661 3.95429C4.14046 4.29202 4.15346 4.49832 4.08762 4.82024C4.05759 4.9671 4.01811 5.02724 3.93652 5.13974C3.79926 5.32904 3.85351 5.24511 3.75533 5.46271C3.74182 5.49263 3.40508 5.98608 3.37186 6.07287L3.25031 6.43663C3.28518 6.48876 3.35109 6.55904 3.35109 6.63836C3.35109 6.94139 2.94176 7.35251 2.7706 7.53676C2.52891 7.79694 2.38873 8.18036 2.18254 8.46117C2.03936 8.65617 1.989 8.63613 1.85811 8.87614C1.79139 8.99848 1.59142 9.18326 1.50303 9.29406C1.44461 9.36729 0.865234 10.1553 0.865234 10.1687C0.865234 10.278 0.894337 10.1941 0.932416 10.3368H1.03319C1.09829 10.3368 1.1893 10.4713 1.57067 10.4713C1.72301 10.5734 1.83942 10.5018 1.83942 10.7403V10.942C1.83942 11.0605 1.70505 11.0774 1.70505 11.1438C1.70505 11.3175 1.79404 11.3531 1.9066 11.4127C1.9066 11.6912 1.8681 11.8565 2.01498 12.0103C2.08228 12.0809 2.27611 12.3561 2.27611 12.455V12.9257C2.27611 13.4357 2.17476 13.5113 2.51318 13.8316C2.61957 13.9323 3.22686 14.2034 3.38468 14.2034L3.4532 14.2118L3.72578 14.164L3.85498 14.2706C4.01795 14.2326 4.12053 14.1698 4.32527 14.1698H4.56042C4.89815 14.1698 5.12101 14.1812 5.43337 14.2038C5.64739 14.2192 6.08361 14.4439 6.24004 14.3715C6.07365 14.1228 5.45402 13.9344 5.03071 13.9344L4.62695 13.9298L4.1909 13.968C4.24735 13.7255 4.56263 13.6079 4.72836 13.4637ZM12.5218 13.2283C12.5218 13.1496 12.5776 13.0938 12.6562 13.0938H12.6898C12.81 13.0938 12.855 13.3399 12.8578 13.4637C12.752 13.439 12.5218 13.3505 12.5218 13.2283ZM13.8991 13.2956L13.496 13.3628C13.4822 13.3422 13.3617 13.166 13.3617 13.1611C13.3617 13.1027 13.6987 12.6679 13.8319 12.6568C13.8208 12.7903 13.7984 12.7377 13.7984 12.8249C13.7984 12.9517 13.8479 13.051 13.8991 13.1275V13.2956ZM13.1601 12.5223L13.3236 12.5033L13.6304 12.5895C13.626 12.7883 13.4344 12.9884 13.2331 12.9909L13.1498 12.7791L13.328 12.6568V12.5895H13.1601V12.5223ZM12.9249 12.3542C12.9425 12.4296 12.9585 12.4315 12.9585 12.5223C12.9585 12.5236 12.8048 12.7699 12.7906 12.7912C12.7048 12.7338 12.5554 12.596 12.5554 12.455C12.5554 12.3809 12.735 12.3542 12.8242 12.3542H12.9249ZM12.1382 12.1507C12.2605 12.1614 12.3539 12.2126 12.3539 12.3205V12.4887C12.3539 12.5515 12.1042 12.9577 12.0336 12.9907L12.1382 12.1507ZM13.4946 12.1775L13.5377 12.3862C13.3528 12.3731 13.2743 12.3815 13.2602 12.2155L13.4946 12.1775ZM12.7906 12.0179C12.861 12.0179 12.8848 12.107 12.8914 12.186H12.7234C12.7234 12.1105 12.7149 12.0179 12.7906 12.0179ZM11.8164 12.6231C11.8164 12.7253 11.7581 12.7373 11.682 12.7576C11.644 12.6152 11.5958 12.4612 11.4469 12.4214L11.5915 12.1594L11.4352 12.1788L11.5145 12.0518L11.7829 12.0558C11.7915 12.1567 11.8164 12.171 11.8164 12.2869V12.6231ZM13.1601 12.0179C13.1601 11.937 13.2808 11.8162 13.3617 11.8162C13.4087 11.8162 13.4288 11.862 13.4288 11.9171V12.0516L13.1607 12.1212L13.1601 12.0179ZM12.4547 11.8498C12.4547 11.7253 12.5146 11.5652 12.5554 11.48L12.5935 11.4669L12.7347 11.8796L12.5796 12.1471C12.5129 12.1321 12.4547 12.1201 12.4547 12.0179V11.8498ZM13.7312 11.749C13.7312 11.543 13.8117 11.5617 13.9268 11.5076C14.0644 11.443 13.9629 11.3119 14.1343 11.3119C14.2087 11.3119 14.3358 11.5331 14.3358 11.6481V11.7826L14.0321 11.6854L14.2434 11.9079L14.1528 12.2497C13.8714 12.2533 13.7312 12.1778 13.7312 11.8834V11.749ZM13.5632 11.4127C13.5632 11.334 13.6189 11.2782 13.6976 11.2782H13.7312C13.8086 11.2782 13.8319 11.3016 13.8319 11.3791C13.8319 11.426 13.6784 11.5823 13.6304 11.6145C13.5898 11.5538 13.5632 11.5554 13.5632 11.48V11.4127ZM13.1795 11.802C13.0728 11.8801 13.1158 11.9684 12.9249 11.9843C12.9025 11.8877 12.8919 11.9288 12.8914 11.8498L12.9147 11.1772L12.7248 11.2186C12.7147 11.1058 12.6898 11.0916 12.6898 10.9756C12.6898 10.8597 12.7147 10.8455 12.7258 10.7466L12.8249 10.7085C12.9424 10.7693 13.4288 11.2868 13.4288 11.3791V11.5809C13.4288 11.7495 13.2572 11.745 13.1795 11.802ZM10.775 10.8412C10.8754 10.868 10.9667 10.9909 10.9766 11.1101C10.8114 11.0964 10.7789 11.0158 10.775 10.8412ZM11.2819 10.8417L11.412 10.8789C11.3833 11.0037 11.3786 11.0619 11.2381 11.0752L11.2819 10.8417ZM11.2106 10.779C11.1997 10.9185 11.2165 10.8345 11.1446 10.942C11.0526 10.8804 11.0218 10.8792 11.0102 10.7403L11.2106 10.779ZM11.2454 10.5385C11.2454 10.413 11.2825 10.2359 11.3797 10.2359C11.4268 10.2359 11.4469 10.2818 11.4469 10.3368V10.5722L11.2454 10.5385ZM11.9844 9.46263C12.3267 9.46263 12.757 9.42161 12.757 9.83249V10.0006C12.757 10.2502 12.3076 10.65 12.2867 10.8412L12.6127 10.6871C12.5231 10.9143 12.6036 11.1275 12.4617 11.3525C12.2858 11.6318 12.3754 11.7994 12.2867 11.9843C12.0657 11.8362 12.0978 11.7329 12.0014 11.4629C11.9403 11.2915 11.7492 11.096 11.7492 10.942V10.9084C11.7492 10.7633 12.0117 10.6539 12.018 10.3704C11.8664 10.4816 11.8206 10.7232 11.6149 10.7403V10.4713C11.6149 9.81124 11.6818 9.91489 11.9844 9.46263ZM10.7415 9.79887C10.7415 9.5281 10.9635 9.49096 11.0102 9.36177L11.2487 9.45579L11.4133 9.46263L11.3041 9.3733L11.3846 9.26495C11.3271 9.22229 11.3125 9.25472 11.3125 9.16004C11.3125 9.10226 11.4725 8.99193 11.5477 8.99193C11.57 8.99193 11.8836 9.20614 11.8836 9.32815C11.8836 9.34855 11.7052 9.5962 11.682 9.63074L11.4821 9.58904C11.4611 9.83036 11.2005 10.4041 11.0102 10.4041H10.8086C10.7706 10.2613 10.7415 10.3452 10.7415 10.2359V9.79887ZM13.8991 13.2956L14.2632 12.9538L14.2351 12.9257C14.0848 12.9801 14.2093 13.0265 14.0671 13.0265L13.8763 13.0108L14.0683 12.7236L14.0335 12.5558C14.2252 12.5046 14.0719 12.295 14.4366 12.2868V12.3877C14.4366 12.6323 14.2538 12.5997 14.2351 12.8248C14.5937 12.8168 14.3233 12.469 14.6718 12.3877C14.6654 12.6753 14.5374 12.5585 14.5374 12.6567C14.5374 12.7514 14.5519 12.7189 14.6046 12.7576C14.7035 12.3869 14.9741 12.4861 14.9741 11.8834C14.9741 11.7878 15.0037 11.7357 15.0413 11.6816L15.0077 11.6144L14.9691 11.68L14.8733 11.6816L14.8355 11.4802L14.7725 11.5471C14.4151 11.5173 14.556 11.1458 14.2498 11.0614C13.946 10.9777 13.6962 11.1995 13.4624 11.0428L13.3294 11.0806C13.2153 11.0009 13.0016 10.6057 12.8914 10.6057H12.7906C12.6814 10.6057 12.7652 10.6349 12.6226 10.673C12.6338 10.538 12.8914 10.1872 12.8914 9.89967C12.8914 9.57465 12.756 9.31858 12.9921 9.19355L12.9249 9.15993L12.8242 9.15998L12.7014 9.04414C12.7289 9.14061 12.777 9.29446 12.6226 9.29446H12.3875C12.2641 9.29446 12.2251 9.24237 12.1523 9.1936L11.9185 9.23445C11.9263 8.81514 12.2875 8.8138 12.5502 8.61675C12.8204 8.41402 13.0222 8.35699 13.2273 8.05044L13.1937 7.98318C13.1001 8.0646 12.907 8.1814 12.8525 8.28051C12.7968 8.38171 12.595 8.49394 12.4846 8.55114C12.0136 8.79517 12.1263 8.79012 11.5141 8.79012C11.5065 8.79012 11.1149 8.97453 11.0807 8.99521C10.9936 9.04782 10.8504 9.22898 10.7696 9.32263C10.6724 9.43521 10.4919 9.5035 10.4338 9.62539C10.3901 9.71706 10.2711 10.0076 10.2711 10.135V10.2359C10.2711 10.6654 10.4745 11.3118 10.8758 11.3118H11.2453C11.3494 11.3118 11.424 11.1623 11.4469 11.0764C11.631 11.0806 11.7156 11.241 11.7156 11.4127V11.6144L11.58 11.6147L11.6217 11.7808L11.583 11.7522L11.3212 12.0279L11.3444 12.0584L11.1707 12.019L11.2117 12.3205C10.979 12.3205 10.7597 12.3702 10.7414 12.5895H10.9094C11.1404 12.5895 11.4133 13.0281 11.4133 13.0938C11.4133 13.1618 11.3342 13.2955 11.2789 13.2955C11.1687 13.2955 11.1529 13.2277 11.1445 13.1274H11.0438V13.3292C11.0438 13.5263 11.1931 13.3688 11.2367 13.5825L10.9766 13.4636C10.9856 13.5719 11.0367 13.6654 11.1445 13.6654L11.3359 13.6559L11.6776 13.2891L11.6496 13.267L11.85 13.2283C11.8611 13.3618 11.8836 13.3093 11.8836 13.3964C11.8836 13.5586 11.7492 13.5032 11.7492 13.6654C11.7492 13.7775 11.8949 13.6631 11.9172 13.8671C12.0451 13.7733 12.0179 13.5157 12.0179 13.2955C12.0552 13.2398 12.1828 13.0265 12.2531 13.0265C12.4284 13.0265 12.2962 13.4189 12.6847 13.5696C12.7354 13.5893 13.4489 13.7999 13.4624 13.7999H13.7648C14.1583 13.7999 14.3588 13.1999 14.5038 12.9257C14.2828 13.0057 14.2776 13.5309 13.8991 13.5309L13.7795 13.5216L13.8991 13.2956ZM9.53215 11.9843C9.53215 11.8182 9.64943 11.7279 9.8009 11.7153C9.79817 11.838 9.7227 12.1524 9.59933 12.1524C9.55226 12.1524 9.53215 12.1065 9.53215 12.0515V11.9843ZM9.26341 11.8161C9.26341 11.5128 9.64657 11.2782 9.90167 11.2782C9.97272 11.2782 9.94596 11.2902 10.036 11.3118C10.0101 11.6236 9.42595 11.3423 9.3642 12.0851C9.28934 12.0651 9.26341 12.0773 9.26341 11.9843V11.8161ZM10.141 11.3816L10.2712 11.379C10.2361 11.2476 10.0958 11.2109 9.93526 11.2109H9.70012C9.56417 11.2109 9.12905 11.4428 9.12905 11.5808V11.917C9.12905 12.2432 9.26341 12.487 9.26341 12.7912C9.26341 12.8499 9.12905 12.9506 9.12905 13.0602C9.12905 13.6123 9.83547 13.7656 9.98942 14.3172C10.0639 14.5839 10.1525 14.9317 10.2079 15.1744C10.2605 15.4049 10.2386 15.9181 10.5063 15.9181C10.5156 15.9181 10.5677 15.8949 10.6071 15.8845L10.6906 16L10.7079 15.3465C10.7079 15.1238 10.7235 14.8979 10.7599 14.6924C10.8187 14.3603 10.8817 14.5732 11.2118 14.5732H11.279C11.5923 14.5732 11.9172 14.2285 11.9172 13.9007C11.8281 14.0034 11.7737 14.237 11.6485 14.237H11.5477C11.5358 14.3802 11.4988 14.4387 11.3462 14.4387H11.2454C11.1007 14.4387 10.8087 14.4037 10.8087 14.2706C10.8087 14.0808 11.0655 14.2228 11.1782 14.0688L10.979 13.8977C10.9013 13.9183 10.8994 13.9343 10.8087 13.9343C10.6717 13.9343 10.5399 13.7365 10.5399 13.5981V13.3628H10.372L10.296 13.5261C10.1775 13.5012 9.96887 13.3079 9.96887 13.161V13.0602C10.102 13.0602 10.2712 13.0533 10.2712 12.9257C10.2712 12.6386 9.99146 12.6932 9.96887 12.4213L10.096 12.5002L10.1442 12.356L10.036 12.3541L10.0622 12.3279L9.92779 12.1935L9.90167 12.2196C9.90167 11.8304 10.0414 11.8243 10.1704 11.648L10.1428 11.6125L9.90619 11.7647L10.141 11.3816ZM5.0643 7.27716C5.0643 7.34405 4.86312 7.37918 4.79556 7.41164C4.76642 7.30247 4.61108 7.17628 4.79556 7.17628H4.92992C4.9948 7.17628 5.0643 7.23623 5.0643 7.27716ZM4.48267 6.91418L4.49322 6.87368C4.83091 6.87368 5.3336 6.85929 5.40022 7.10903H5.16507C5.02958 7.10903 4.96772 7.10192 4.92438 7.02942L4.48267 6.91418ZM4.35884 7.07541C4.35884 7.55005 4.52681 7.36909 4.52681 7.57975C4.52681 7.60272 4.23196 7.85985 4.19089 7.91597C4.23187 7.93901 4.22681 7.94959 4.29166 7.94959C4.43951 7.94959 4.79472 7.62004 4.91652 7.53271C5.22584 7.31095 5.26091 7.3444 5.70256 7.3444L5.72796 7.32179L5.56858 7.14142L5.9041 7.24354C5.87296 6.86887 5.26014 7.04097 5.23225 6.70557H4.69477C4.61946 6.70557 4.62103 6.67897 4.56003 6.64163L4.1573 6.60471H4.02292C4.03149 6.98989 4.16809 6.94757 4.35884 7.07541ZM6.8783 2.16659L7.01268 2.43556L7.11973 2.24784L7.14706 2.2675V2.13301C7.14706 2.05553 7.17044 2.03215 7.24785 2.03215C7.30283 2.03215 7.34862 2.05227 7.34862 2.09939C7.34862 2.20257 7.30231 2.24392 7.21424 2.26745V2.43556H7.28142C7.35063 2.38917 7.36864 2.33474 7.44939 2.33474H7.61736C7.71968 2.33474 7.74024 2.35001 7.81892 2.36836C8.04325 2.21801 8.19334 2.04098 8.22203 1.69591V1.59505L8.15485 1.62867L8.12126 1.76316H7.98688C7.9463 1.58883 7.86279 1.39332 7.65095 1.39332H7.61736C7.47487 1.39332 7.04629 1.67787 7.04629 1.79678V2.07697L6.83997 2.06668L6.8783 2.16659ZM15.9819 7.748C15.9819 7.8797 15.8589 8.18356 15.8476 8.31959H15.7804L15.8057 8.2971L15.646 8.15148V8.21872C15.5176 8.21585 15.3009 8.10704 15.2525 8.13151C15.2416 8.13703 15.1421 8.5129 15.1421 8.52132C15.1421 8.52307 15.2858 8.79029 15.3773 8.79029C15.5913 8.79029 15.54 8.66848 15.7132 8.62218C15.7078 8.86545 15.4802 9.52998 15.2765 9.52998C15.15 9.52998 15.213 9.50787 15.0708 9.49768L15.1085 9.63085H15.2765V9.56361H15.4781C15.6126 9.56361 15.5878 9.27515 15.7288 9.10856C15.7803 9.04777 15.9762 8.72453 15.9819 8.6558H15.8476C16.0069 8.32349 16.0491 7.77933 16.0419 7.38668L15.9484 7.2773C15.8248 7.36663 15.9819 7.56576 15.9819 7.748ZM15.4109 10.774V11.0766C15.4109 11.1805 15.5368 11.3055 15.6124 11.3455V11.7826C15.6941 11.6538 15.6112 11.5925 15.7804 11.5473C15.7804 11.8218 15.8486 11.7214 15.9023 11.9297C15.9646 12.172 15.9148 12.1423 15.9148 12.3878C16.0124 12.2754 16.0155 12.0258 16.0155 11.9171C16.0155 11.756 16.0495 11.5495 16.1835 11.5137C16.081 11.2998 16.278 11.1919 16.2843 10.9084H16.2171C16.1989 10.9767 16.0445 11.4464 15.9819 11.4464C15.8505 11.4464 15.9782 11.3956 15.7723 11.3775L15.814 11.1774C15.7765 11.2025 15.701 11.2783 15.6796 11.2783C15.5563 11.2783 15.5117 11.0726 15.5117 10.9421V10.6395C15.5117 10.4814 15.6623 10.3097 15.6796 10.1015C15.4481 10.1208 15.4109 10.5265 15.4109 10.774ZM16.6874 9.19374C16.6874 9.38273 16.5343 9.48609 16.4187 9.56358C16.3777 9.54053 16.3827 9.52995 16.3179 9.52995C16.2674 9.52995 16.0982 9.78986 16.0827 9.83257C16.1692 9.81241 16.3313 9.69806 16.3515 9.69806C16.4766 9.69806 16.7239 9.89981 16.9998 9.87766L16.553 9.66444C16.6142 9.40176 16.8218 9.26154 16.8218 9.12649C16.8218 9.04902 16.7984 9.02563 16.721 9.02563H16.6202C16.6583 9.16835 16.6874 9.08444 16.6874 9.19374ZM4.99719 4.72204L5.19876 4.82291C5.74485 4.82291 5.85748 5.04039 6.07217 5.05826C6.03506 4.91915 5.76248 4.78956 5.60977 4.74775C5.45282 4.70477 5.098 4.55617 4.99719 4.55392V4.72204ZM12.354 3.51163L12.5575 3.51093L12.613 3.6432L12.6956 3.38973L12.9923 3.27628L12.7569 3.27429C12.6022 3.29424 12.4018 3.21088 12.3876 3.04092H12.2197C12.1039 3.04092 12.0896 3.01605 11.9845 3.0073L12.4979 3.32783L12.354 3.51163ZM14.6383 3.44439H14.7391C14.7395 3.44439 14.9093 3.38434 14.9375 3.37176C15.0804 3.30795 14.9742 3.33899 14.9742 3.17541V3.07455C14.7744 3.09119 14.6431 3.22978 14.6383 3.44439ZM9.36432 4.99099C9.41508 4.99099 9.56587 4.89726 9.56587 4.8565C9.56587 4.77903 9.5425 4.75563 9.46509 4.75563H9.16276C9.16615 4.90827 9.29822 4.99099 9.36432 4.99099ZM5.76988 5.66344L6.17298 5.73068C6.15027 5.64552 6.10809 5.56257 6.00503 5.56257H5.76988V5.66344ZM8.52439 4.08321H8.55799C8.65954 4.08321 8.65088 4.04364 8.6582 3.95167L8.42361 3.9151C8.42601 4.02285 8.41267 4.08321 8.52439 4.08321ZM15.5075 7.64589C15.5123 7.64774 15.5743 7.68082 15.5788 7.68082C15.6891 7.68082 15.7049 7.61299 15.7132 7.51271L15.5494 7.51402L15.5075 7.64589ZM8.15594 6.81174L8.15483 6.94113C8.28223 6.93051 8.34242 6.90069 8.35527 6.76793L8.15594 6.81174ZM9.1962 5.19281C9.1962 5.26164 9.2654 5.25462 9.33056 5.26005V5.12556C9.2654 5.13099 9.1962 5.12398 9.1962 5.19281Z" /></symbol><symbol viewBox="0 0 32 32" id="volume"><path d="M13.9195 21.2195C14.2956 22.2527 13.4278 23.5171 11.9814 24.0435C10.5349 24.57 9.05752 24.1592 8.68147 23.126C8.30542 22.0929 9.17316 20.8285 10.6196 20.3021C12.0661 19.7756 13.5435 20.1864 13.9195 21.2195Z" /><path d="M21.6001 18.0342C21.9761 19.0674 21.1084 20.3317 19.6619 20.8582C18.2155 21.3847 16.7381 20.9739 16.362 19.9407C15.986 18.9075 16.8537 17.6432 18.3002 17.1167C19.7466 16.5903 21.224 17.001 21.6001 18.0342Z" /><path fill-rule="evenodd" clip-rule="evenodd" d="M21.8573 7.5625V18.1543H19.8573V10.4308L14.2922 12.481V21.7377H12.2922V11.0865L21.8573 7.5625Z" /></symbol></defs></svg>